<?xml version="1.0" encoding="UTF-8"?>
<svg id="Camada_2" xmlns="http://www.w3.org/2000/svg" viewBox="0 0 1040.72 305.32">
  <defs>
    <style>
      .cls-1 {
        fill: #ffa300;
      }
    </style>
  </defs>
  <g id="Camada_1-2" data-name="Camada_1">
    <g>
      <g>
        <path class="cls-1" d="M971.35,17.92H391.53v200.11c0,38.31,31.06,69.37,69.37,69.37h579.82V87.29c0-38.31-31.06-69.37-69.37-69.37ZM988.87,105.77c0,18.64-7.74,31.26-21.51,39.29v.86c19.22,8.32,29.83,23.23,29.83,44.17,0,35.56-21.51,61.09-74,61.09h-80.59V50.41h73.14c48.47,0,73.13,21.23,73.13,55.36ZM724.44,207.58c21.8,0,34.71-12.62,34.71-39.29V50.41h49.04v122.76c0,55.06-31.26,81.74-83.75,81.74s-84.03-26.68-84.03-81.74V50.41h49.33v117.88c0,26.67,12.62,39.29,34.7,39.29ZM435.06,50.41h49.04v76.29h72.85V50.41h49.05v200.77h-49.05v-78.01h-72.85v78.01h-25.33c-13.1,0-23.71-10.62-23.71-23.71V50.41Z"/>
        <path class="cls-1" d="M939.54,110.93c0,12.91-8.6,21.8-26.39,21.8h-21.22v-43.6h21.22c16.93,0,26.39,7.17,26.39,21.8Z"/>
        <path class="cls-1" d="M947.28,188.08c0,13.77-8.31,24.38-26.67,24.38h-28.68v-46.18h28.68c17.5,0,26.67,8.03,26.67,21.8Z"/>
      </g>
      <g>
        <g>
          <path class="cls-1" d="M277.82,116.55c2.06,5.1,3.15,10.61,3.15,16.29,0,11.58-4.5,22.46-12.69,30.64-3.97,3.97-8.58,7.08-13.59,9.22,22.39,5.4,39.33,10.71,39.33,26.83,0,18-17.22,26.99-40.3,26.99-29.73,0-44.21-16.83-47.72-32.48l-2.89.89c3.55,7.55,5.42,15.83,5.42,24.24,0,10.67-3.02,21.13-8.61,30.15l5.85,5.85c2.14-.56,4.35-.84,6.57-.84,6.91,0,13.41,2.69,18.3,7.58,4.88,4.89,7.58,11.39,7.58,18.3,0,.92-.04,1.82-.15,2.71,5.42.48,10.91.72,16.45.72,68.46,0,107.19-40.69,107.19-85.29,0-42.08-19.05-63.21-83.87-81.81ZM257.23,0c-57.12,0-100.54,31.3-100.54,83.72,0,33.19,12.95,55.68,40.95,70.61l1.52-1.52c-8.56-16.47-5.69-37.13,7.82-50.64,4.76-4.76,10.44-8.28,16.63-10.38-1.26-2.5-1.97-5.31-1.97-8.47,0-15.65,12.91-26.21,32.47-26.21,23.86,0,35.2,13.3,38.73,26.6l61.81-15.26C344.08,25.04,304.18,0,257.23,0Z"/>
          <path class="cls-1" d="M121.12,267.81c4.55,2.82,9.46,4.98,14.59,6.43v9.33h-13.41c.43-4.97-.28-10.04-2.17-14.79l.99-.98Z"/>
          <path class="cls-1" d="M89.57,248.01c-8.73,0-16.94,3.39-23.14,9.53v-85.23c1.83.33,3.7.48,5.6.48,4.19,0,8.28-.78,12.1-2.29l18.52,18.52c-5.59,9.01-8.61,19.48-8.61,30.15s3.02,21.14,8.61,30.15l-.99.98c-3.82-1.5-7.9-2.29-12.09-2.29Z"/>
          <path class="cls-1" d="M210.5,0c-29.28,9.16-50.75,28.84-57.9,56.81-.97,2.86-1.83,5.78-2.48,8.82h-14.41v98.5c-5.12,1.45-10.04,3.61-14.59,6.43l-18.51-18.51c4.72-11.95,2.07-25.93-7.33-35.34-6.21-6.21-14.46-9.63-23.24-9.63-1.9,0-3.78.16-5.61.48v-41.94H0V0h210.5Z"/>
        </g>
        <g>
          <path class="cls-1" d="M223.59,164.82c2.96,1.3,6.07,2.17,9.23,2.6-3.18-.82-6.26-1.68-9.23-2.6Z"/>
          <path class="cls-1" d="M266.77,113.59c-1.27-1.93-2.76-3.76-4.45-5.45-6.81-6.82-15.75-10.23-24.69-10.23-2.77,0-5.52.33-8.23.98-6.03,1.45-11.75,4.54-16.47,9.25-12.53,12.52-13.55,32.2-3.07,45.89l-4.2,4.2-23.32,23.32c-8.45-6.98-19.28-11.19-31.06-11.19-5.44,0-10.68.89-15.56,2.56-5.7,1.92-10.94,4.87-15.49,8.63l-27.92-27.92c6.44-9.5,5.45-22.55-2.98-30.97-4.77-4.78-11.03-7.17-17.28-7.17-1.88,0-3.77.22-5.61.66-4.28.99-8.34,3.17-11.68,6.5-9.54,9.54-9.54,25.02,0,34.57,3.34,3.34,7.4,5.5,11.68,6.5,1.84.43,3.71.65,5.6.65,4.79,0,9.58-1.39,13.69-4.19l27.93,27.92c-6.99,8.45-11.19,19.28-11.19,31.06s4.2,22.61,11.19,31.06l-10.39,10.38c-4.13-2.79-8.9-4.19-13.69-4.19-6.26,0-12.51,2.39-17.29,7.17-2.74,2.74-4.68,5.96-5.85,9.39-2.91,8.55-.96,18.37,5.85,25.18,4.78,4.78,11.03,7.16,17.29,7.16s12.51-2.38,17.29-7.16c4.08-4.08,6.42-9.27,7-14.6.63-5.65-.72-11.48-4.03-16.37l10.39-10.39c4.55,3.76,9.79,6.71,15.49,8.63,4.88,1.66,10.12,2.56,15.56,2.56,8.87,0,17.21-2.39,24.38-6.55,2.36-1.36,4.59-2.91,6.68-4.64l14.79,14.79c-.28.49-.54.99-.76,1.5-2.86,6.41-1.66,14.21,3.6,19.46,3.41,3.41,7.88,5.11,12.34,5.11s8.94-1.7,12.35-5.11c2.96-2.96,4.64-6.71,5.02-10.59.52-5.03-1.16-10.24-5.02-14.1-3.41-3.41-7.88-5.11-12.34-5.11-2.98,0-5.96.76-8.62,2.27l-14.8-14.79c6.99-8.45,11.19-19.28,11.19-31.06,0-7.8-1.84-15.17-5.11-21.72-1.66-3.35-3.7-6.48-6.07-9.34l26.14-26.14,1.38-1.38c2.25,1.72,4.66,3.13,7.17,4.22,2.97.92,6.05,1.78,9.23,2.6,1.59.22,3.2.34,4.81.34,8.93,0,17.88-3.41,24.69-10.22,11.94-11.94,13.43-30.39,4.45-43.95ZM189.16,219.18c0,8.78-3,16.86-8.02,23.29-.96,1.22-1.99,2.39-3.08,3.48-1.11,1.1-2.26,2.13-3.48,3.09-2.42,1.88-5.07,3.48-7.9,4.76-4.7,2.09-9.92,3.26-15.4,3.26s-10.82-1.2-15.56-3.35c-2.77-1.25-5.37-2.83-7.72-4.67-1.23-.97-2.39-1.99-3.48-3.09-1.09-1.09-2.13-2.26-3.08-3.48-5.03-6.43-8.03-14.51-8.03-23.29s3-16.86,8.03-23.29c.96-1.22,1.99-2.39,3.08-3.48,1.09-1.11,2.25-2.13,3.48-3.09,2.36-1.84,4.96-3.42,7.72-4.67,4.75-2.15,10.02-3.35,15.56-3.35,8.78,0,16.87,3,23.3,8.02,1.22.97,2.38,1.99,3.48,3.09,1.09,1.09,2.13,2.26,3.08,3.48,1.19,1.53,2.27,3.16,3.22,4.86,3.06,5.46,4.8,11.74,4.8,18.43Z"/>
        </g>
      </g>
    </g>
  </g>
</svg>